<svg width="31" height="53" viewBox="0 0 31 53" fill="none" xmlns="http://www.w3.org/2000/svg">
<path d="M1.32871 25.7637L1.32814 25.7642C1.2316 25.8592 1.17576 25.9915 1.17576 26.132C1.17576 26.2724 1.2316 26.4048 1.32814 26.4998L1.32872 26.5004L26.7842 51.6205C26.882 51.717 27.0066 51.764 27.1313 51.764C27.2584 51.764 27.3849 51.7153 27.4823 51.6165L27.4827 51.6161L30.3509 48.7142L30.3514 48.7137C30.4463 48.6179 30.5005 48.4858 30.4995 48.347L30.9995 48.3434L30.4995 48.347C30.4985 48.2074 30.4425 48.0764 30.3462 47.9816L30.3461 47.9815L8.49796 26.4884L8.13563 26.132L8.49797 25.7756L30.3466 4.28248L30.3466 4.28243C30.443 4.18765 30.499 4.05659 30.5 3.917L30.5 3.917C30.501 3.77819 30.4468 3.64613 30.3518 3.55028L30.3514 3.54982L27.4832 0.647912L27.483 0.647688C27.2905 0.452625 26.9809 0.450329 26.7847 0.643524C26.7846 0.643583 26.7846 0.643642 26.7845 0.6437L1.32871 25.7637Z" fill="#222831" stroke="#222831"/>
</svg>
