<svg width="47" height="53" viewBox="0 0 47 53" fill="none" xmlns="http://www.w3.org/2000/svg">
<path d="M16.5606 25.7635L16.56 25.7641C16.4636 25.859 16.4077 25.9914 16.4077 26.132C16.4077 26.2726 16.4636 26.405 16.56 26.4999L16.5606 26.5005L41.9962 51.6206C42.0939 51.7171 42.2182 51.764 42.3426 51.764C42.4694 51.764 42.5956 51.7154 42.6929 51.6167L42.6933 51.6162L45.5592 48.7143L45.5597 48.7139C45.6546 48.618 45.7088 48.4859 45.7078 48.347L46.2077 48.3434L45.7078 48.347C45.7067 48.2073 45.6508 48.0762 45.5545 47.9814L45.5545 47.9814L23.7234 26.4883L23.3615 26.132L23.7234 25.7757L45.5549 4.28261L45.555 4.28256C45.6513 4.18782 45.7072 4.05672 45.7082 3.91701L45.7082 3.917C45.7092 3.77807 45.6551 3.64596 45.5602 3.55014L45.5597 3.54968L42.6938 0.647773L42.6936 0.647549C42.5014 0.452698 42.1927 0.450379 41.9967 0.643296C41.9966 0.643385 41.9965 0.643474 41.9965 0.643563L16.5606 25.7635Z" fill="#222831" stroke="#222831"/>
<path d="M1.57232 25.7635L1.57175 25.7641C1.47532 25.859 1.41946 25.9914 1.41946 26.132C1.41946 26.2726 1.47532 26.405 1.57175 26.4999L1.57232 26.5005L27.0079 51.6206C27.1056 51.7171 27.2299 51.764 27.3543 51.764C27.4811 51.764 27.6074 51.7154 27.7046 51.6167L27.705 51.6162L30.571 48.7143L30.5714 48.7139C30.6663 48.618 30.7205 48.4859 30.7195 48.347L31.2195 48.3434L30.7195 48.347C30.7185 48.2073 30.6625 48.0762 30.5662 47.9814L30.5662 47.9814L8.73513 26.4883L8.37322 26.132L8.73513 25.7757L30.5667 4.28261L30.5667 4.28256C30.663 4.18782 30.719 4.05672 30.72 3.91701L30.72 3.917C30.721 3.77807 30.6668 3.64596 30.5719 3.55014L30.5715 3.54968L27.7055 0.647773L27.7053 0.647549C27.5131 0.452698 27.2044 0.450379 27.0084 0.643296C27.0084 0.643385 27.0083 0.643474 27.0082 0.643563L1.57232 25.7635Z" fill="#222831" stroke="#222831"/>
</svg>
