<svg width="414" height="414" viewBox="0 0 414 414" fill="none" xmlns="http://www.w3.org/2000/svg">
<rect x="51.75" y="51.75" width="51.75" height="51.75" fill="#D7DEE9"/>
<rect x="258.75" y="51.75" width="51.75" height="51.75" fill="#D7DEE9"/>
<rect x="155.25" y="51.75" width="51.75" height="51.75" fill="#D7DEE9"/>
<rect x="155.25" y="51.75" width="51.75" height="51.75" fill="#D7DEE9"/>
<rect x="362.25" y="51.75" width="51.75" height="51.75" fill="#D7DEE9"/>
<path d="M0 51.75H51.75V103.5H0V51.75Z" fill="#8A9EBC"/>
<path d="M0 51.75H51.75V103.5H0V51.75Z" fill="#8A9EBC"/>
<path d="M207 51.75H258.75V103.5H207V51.75Z" fill="#8A9EBC"/>
<path d="M103.5 51.75H155.25V103.5H103.5V51.75Z" fill="#8A9EBC"/>
<path d="M310.5 51.75H362.25V103.5H310.5V51.75Z" fill="#8A9EBC"/>
<rect x="51.75" y="51.75" width="51.75" height="51.75" fill="#D7DEE9"/>
<rect x="258.75" y="51.75" width="51.75" height="51.75" fill="#D7DEE9"/>
<rect x="155.25" y="51.75" width="51.75" height="51.75" fill="#D7DEE9"/>
<rect x="155.25" y="51.75" width="51.75" height="51.75" fill="#D7DEE9"/>
<rect x="362.25" y="51.75" width="51.75" height="51.75" fill="#D7DEE9"/>
<path d="M0 51.75H51.75V103.5H0V51.75Z" fill="#8A9EBC"/>
<path d="M0 51.75H51.75V103.5H0V51.75Z" fill="#8A9EBC"/>
<path d="M207 51.75H258.75V103.5H207V51.75Z" fill="#8A9EBC"/>
<path d="M103.5 51.75H155.25V103.5H103.5V51.75Z" fill="#8A9EBC"/>
<path d="M310.5 51.75H362.25V103.5H310.5V51.75Z" fill="#8A9EBC"/>
<rect x="51.75" y="258.75" width="51.75" height="51.75" fill="#D7DEE9"/>
<rect x="258.75" y="258.75" width="51.75" height="51.75" fill="#D7DEE9"/>
<rect x="155.25" y="258.75" width="51.75" height="51.75" fill="#D7DEE9"/>
<rect x="155.25" y="258.75" width="51.75" height="51.75" fill="#D7DEE9"/>
<rect x="362.25" y="258.75" width="51.75" height="51.75" fill="#D7DEE9"/>
<path d="M0 258.75H51.75V310.5H0V258.75Z" fill="#8A9EBC"/>
<path d="M0 258.75H51.75V310.5H0V258.75Z" fill="#8A9EBC"/>
<path d="M207 258.75H258.75V310.5H207V258.75Z" fill="#8A9EBC"/>
<path d="M103.5 258.75H155.25V310.5H103.5V258.75Z" fill="#8A9EBC"/>
<path d="M310.5 258.75H362.25V310.5H310.5V258.75Z" fill="#8A9EBC"/>
<rect x="51.75" y="155.25" width="51.75" height="51.75" fill="#D7DEE9"/>
<rect x="258.75" y="155.25" width="51.75" height="51.75" fill="#D7DEE9"/>
<rect x="155.25" y="155.25" width="51.75" height="51.75" fill="#D7DEE9"/>
<rect x="155.25" y="155.25" width="51.75" height="51.75" fill="#D7DEE9"/>
<rect x="362.25" y="155.25" width="51.75" height="51.75" fill="#D7DEE9"/>
<path d="M0 155.25H51.75V207H0V155.25Z" fill="#8A9EBC"/>
<path d="M0 155.25H51.75V207H0V155.25Z" fill="#8A9EBC"/>
<path d="M207 155.25H258.75V207H207V155.25Z" fill="#8A9EBC"/>
<path d="M103.5 155.25H155.25V207H103.5V155.25Z" fill="#8A9EBC"/>
<path d="M310.5 155.25H362.25V207H310.5V155.25Z" fill="#8A9EBC"/>
<rect x="51.75" y="155.25" width="51.75" height="51.75" fill="#D7DEE9"/>
<rect x="258.75" y="155.25" width="51.75" height="51.75" fill="#D7DEE9"/>
<rect x="155.25" y="155.25" width="51.75" height="51.75" fill="#D7DEE9"/>
<rect x="155.25" y="155.25" width="51.75" height="51.75" fill="#D7DEE9"/>
<rect x="362.25" y="155.25" width="51.75" height="51.75" fill="#D7DEE9"/>
<path d="M0 155.25H51.75V207H0V155.25Z" fill="#8A9EBC"/>
<path d="M0 155.25H51.75V207H0V155.25Z" fill="#8A9EBC"/>
<path d="M207 155.25H258.75V207H207V155.25Z" fill="#8A9EBC"/>
<path d="M103.5 155.25H155.25V207H103.5V155.25Z" fill="#8A9EBC"/>
<path d="M310.5 155.25H362.25V207H310.5V155.25Z" fill="#8A9EBC"/>
<rect x="51.75" y="362.25" width="51.75" height="51.75" fill="#D7DEE9"/>
<rect x="258.75" y="362.25" width="51.75" height="51.75" fill="#D7DEE9"/>
<rect x="155.25" y="362.25" width="51.75" height="51.75" fill="#D7DEE9"/>
<rect x="155.25" y="362.25" width="51.75" height="51.75" fill="#D7DEE9"/>
<rect x="362.25" y="362.25" width="51.75" height="51.75" fill="#D7DEE9"/>
<path d="M0 362.25H51.75V414H0V362.25Z" fill="#8A9EBC"/>
<path d="M0 362.25H51.75V414H0V362.25Z" fill="#8A9EBC"/>
<path d="M207 362.25H258.75V414H207V362.25Z" fill="#8A9EBC"/>
<path d="M103.5 362.25H155.25V414H103.5V362.25Z" fill="#8A9EBC"/>
<path d="M310.5 362.25H362.25V414H310.5V362.25Z" fill="#8A9EBC"/>
<rect width="51.75" height="51.75" fill="#D7DEE9"/>
<rect x="207" width="51.75" height="51.75" fill="#D7DEE9"/>
<rect x="103.5" width="51.75" height="51.75" fill="#D7DEE9"/>
<rect x="310.5" width="51.75" height="51.75" fill="#D7DEE9"/>
<path d="M51.75 0H103.5V51.75H51.75V0Z" fill="#8A9EBC"/>
<path d="M258.75 0H310.5V51.75H258.75V0Z" fill="#8A9EBC"/>
<path d="M155.25 0H207V51.75H155.25V0Z" fill="#8A9EBC"/>
<path d="M362.25 0H414V51.75H362.25V0Z" fill="#8A9EBC"/>
<rect width="51.75" height="51.75" fill="#D7DEE9"/>
<rect x="207" width="51.75" height="51.75" fill="#D7DEE9"/>
<rect x="103.5" width="51.75" height="51.75" fill="#D7DEE9"/>
<rect x="310.5" width="51.75" height="51.75" fill="#D7DEE9"/>
<path d="M51.75 0H103.5V51.75H51.75V0Z" fill="#8A9EBC"/>
<path d="M258.75 0H310.5V51.75H258.75V0Z" fill="#8A9EBC"/>
<path d="M155.25 0H207V51.75H155.25V0Z" fill="#8A9EBC"/>
<path d="M362.25 0H414V51.75H362.25V0Z" fill="#8A9EBC"/>
<rect y="207" width="51.75" height="51.75" fill="#D7DEE9"/>
<rect x="207" y="207" width="51.75" height="51.75" fill="#D7DEE9"/>
<rect x="103.5" y="207" width="51.75" height="51.75" fill="#D7DEE9"/>
<rect x="310.5" y="207" width="51.75" height="51.75" fill="#D7DEE9"/>
<path d="M51.75 207H103.5V258.75H51.75V207Z" fill="#8A9EBC"/>
<path d="M258.75 207H310.5V258.75H258.75V207Z" fill="#8A9EBC"/>
<path d="M155.25 207H207V258.75H155.25V207Z" fill="#8A9EBC"/>
<path d="M362.25 207H414V258.75H362.25V207Z" fill="#8A9EBC"/>
<rect y="103.5" width="51.75" height="51.75" fill="#D7DEE9"/>
<rect x="207" y="103.5" width="51.75" height="51.75" fill="#D7DEE9"/>
<rect x="103.5" y="103.5" width="51.75" height="51.75" fill="#D7DEE9"/>
<rect x="310.5" y="103.5" width="51.75" height="51.75" fill="#D7DEE9"/>
<path d="M51.75 103.5H103.5V155.25H51.75V103.5Z" fill="#8A9EBC"/>
<path d="M258.75 103.5H310.5V155.25H258.75V103.5Z" fill="#8A9EBC"/>
<path d="M155.25 103.5H207V155.25H155.25V103.5Z" fill="#8A9EBC"/>
<path d="M362.25 103.5H414V155.25H362.25V103.5Z" fill="#8A9EBC"/>
<rect y="103.5" width="51.75" height="51.75" fill="#D7DEE9"/>
<rect x="207" y="103.5" width="51.75" height="51.75" fill="#D7DEE9"/>
<rect x="103.5" y="103.5" width="51.75" height="51.75" fill="#D7DEE9"/>
<rect x="310.5" y="103.5" width="51.75" height="51.75" fill="#D7DEE9"/>
<path d="M51.75 103.5H103.5V155.25H51.75V103.5Z" fill="#8A9EBC"/>
<path d="M258.958 103.361H310.708V155.111H258.958V103.361Z" fill="#8A9EBC"/>
<path d="M155.25 103.5H207V155.25H155.25V103.5Z" fill="#8A9EBC"/>
<path d="M362.25 103.5H414V155.25H362.25V103.5Z" fill="#8A9EBC"/>
<rect y="310.5" width="51.75" height="51.75" fill="#D7DEE9"/>
<rect x="207" y="310.5" width="51.75" height="51.75" fill="#D7DEE9"/>
<rect x="103.5" y="310.5" width="51.75" height="51.75" fill="#D7DEE9"/>
<rect x="310.5" y="310.5" width="51.75" height="51.75" fill="#D7DEE9"/>
<path d="M51.75 310.5H103.5V362.25H51.75V310.5Z" fill="#8A9EBC"/>
<path d="M258.75 310.5H310.5V362.25H258.75V310.5Z" fill="#8A9EBC"/>
<path d="M155.25 310.5H207V362.25H155.25V310.5Z" fill="#8A9EBC"/>
<path d="M362.25 310.5H414V362.25H362.25V310.5Z" fill="#8A9EBC"/>
</svg>
