<svg width="759" height="759" viewBox="0 0 759 759" fill="none" xmlns="http://www.w3.org/2000/svg">
<rect x="94.875" y="94.875" width="94.875" height="94.875" fill="#D7DEE9"/>
<rect x="474.375" y="94.875" width="94.875" height="94.875" fill="#D7DEE9"/>
<rect x="284.625" y="94.875" width="94.875" height="94.875" fill="#D7DEE9"/>
<rect x="284.625" y="94.875" width="94.875" height="94.875" fill="#D7DEE9"/>
<rect x="664.125" y="94.875" width="94.875" height="94.875" fill="#D7DEE9"/>
<path d="M0 94.875H94.875V189.75H0V94.875Z" fill="#8A9EBC"/>
<path d="M0 94.875H94.875V189.75H0V94.875Z" fill="#8A9EBC"/>
<path d="M379.5 94.875H474.375V189.75H379.5V94.875Z" fill="#8A9EBC"/>
<path d="M189.75 94.875H284.625V189.75H189.75V94.875Z" fill="#8A9EBC"/>
<path d="M569.25 94.875H664.125V189.75H569.25V94.875Z" fill="#8A9EBC"/>
<rect x="94.875" y="94.875" width="94.875" height="94.875" fill="#D7DEE9"/>
<rect x="474.375" y="94.875" width="94.875" height="94.875" fill="#D7DEE9"/>
<rect x="284.625" y="94.875" width="94.875" height="94.875" fill="#D7DEE9"/>
<rect x="284.625" y="94.875" width="94.875" height="94.875" fill="#D7DEE9"/>
<rect x="664.125" y="94.875" width="94.875" height="94.875" fill="#D7DEE9"/>
<path d="M0 94.875H94.875V189.75H0V94.875Z" fill="#8A9EBC"/>
<path d="M0 94.875H94.875V189.75H0V94.875Z" fill="#8A9EBC"/>
<path d="M379.5 94.875H474.375V189.75H379.5V94.875Z" fill="#8A9EBC"/>
<path d="M189.75 94.875H284.625V189.75H189.75V94.875Z" fill="#8A9EBC"/>
<path d="M569.25 94.875H664.125V189.75H569.25V94.875Z" fill="#8A9EBC"/>
<rect x="94.875" y="474.375" width="94.875" height="94.875" fill="#D7DEE9"/>
<rect x="474.375" y="474.375" width="94.875" height="94.875" fill="#D7DEE9"/>
<rect x="284.625" y="474.375" width="94.875" height="94.875" fill="#D7DEE9"/>
<rect x="284.625" y="474.375" width="94.875" height="94.875" fill="#D7DEE9"/>
<rect x="664.125" y="474.375" width="94.875" height="94.875" fill="#D7DEE9"/>
<path d="M0 474.375H94.875V569.25H0V474.375Z" fill="#8A9EBC"/>
<path d="M0 474.375H94.875V569.25H0V474.375Z" fill="#8A9EBC"/>
<path d="M379.5 474.375H474.375V569.25H379.5V474.375Z" fill="#8A9EBC"/>
<path d="M189.75 474.375H284.625V569.25H189.75V474.375Z" fill="#8A9EBC"/>
<path d="M569.25 474.375H664.125V569.25H569.25V474.375Z" fill="#8A9EBC"/>
<rect x="94.875" y="284.625" width="94.875" height="94.875" fill="#D7DEE9"/>
<rect x="474.375" y="284.625" width="94.875" height="94.875" fill="#D7DEE9"/>
<rect x="284.625" y="284.625" width="94.875" height="94.875" fill="#D7DEE9"/>
<rect x="284.625" y="284.625" width="94.875" height="94.875" fill="#D7DEE9"/>
<rect x="664.125" y="284.625" width="94.875" height="94.875" fill="#D7DEE9"/>
<path d="M0 284.625H94.875V379.5H0V284.625Z" fill="#8A9EBC"/>
<path d="M0 284.625H94.875V379.5H0V284.625Z" fill="#8A9EBC"/>
<path d="M379.5 284.625H474.375V379.5H379.5V284.625Z" fill="#8A9EBC"/>
<path d="M189.75 284.625H284.625V379.5H189.75V284.625Z" fill="#8A9EBC"/>
<path d="M569.25 284.625H664.125V379.5H569.25V284.625Z" fill="#8A9EBC"/>
<rect x="94.875" y="284.625" width="94.875" height="94.875" fill="#D7DEE9"/>
<rect x="474.375" y="284.625" width="94.875" height="94.875" fill="#D7DEE9"/>
<rect x="284.625" y="284.625" width="94.875" height="94.875" fill="#D7DEE9"/>
<rect x="284.625" y="284.625" width="94.875" height="94.875" fill="#D7DEE9"/>
<rect x="664.125" y="284.625" width="94.875" height="94.875" fill="#D7DEE9"/>
<path d="M0 284.625H94.875V379.5H0V284.625Z" fill="#8A9EBC"/>
<path d="M0 284.625H94.875V379.5H0V284.625Z" fill="#8A9EBC"/>
<path d="M379.5 284.625H474.375V379.5H379.5V284.625Z" fill="#8A9EBC"/>
<path d="M189.75 284.625H284.625V379.5H189.75V284.625Z" fill="#8A9EBC"/>
<path d="M569.25 284.625H664.125V379.5H569.25V284.625Z" fill="#8A9EBC"/>
<rect x="94.875" y="664.125" width="94.875" height="94.875" fill="#D7DEE9"/>
<rect x="474.375" y="664.125" width="94.875" height="94.875" fill="#D7DEE9"/>
<rect x="284.625" y="664.125" width="94.875" height="94.875" fill="#D7DEE9"/>
<rect x="284.625" y="664.125" width="94.875" height="94.875" fill="#D7DEE9"/>
<rect x="664.125" y="664.125" width="94.875" height="94.875" fill="#D7DEE9"/>
<path d="M0 664.125H94.875V759H0V664.125Z" fill="#8A9EBC"/>
<path d="M0 664.125H94.875V759H0V664.125Z" fill="#8A9EBC"/>
<path d="M379.5 664.125H474.375V758.999H379.5V664.125Z" fill="#8A9EBC"/>
<path d="M189.75 664.125H284.625V758.999H189.75V664.125Z" fill="#8A9EBC"/>
<path d="M569.25 664.125H664.125V758.999H569.25V664.125Z" fill="#8A9EBC"/>
<rect width="94.875" height="94.875" fill="#D7DEE9"/>
<rect x="379.5" width="94.875" height="94.875" fill="#D7DEE9"/>
<rect x="189.75" width="94.875" height="94.875" fill="#D7DEE9"/>
<rect x="569.25" width="94.875" height="94.875" fill="#D7DEE9"/>
<path d="M94.875 0H189.75V94.875H94.875V0Z" fill="#8A9EBC"/>
<path d="M474.375 0H569.25V94.875H474.375V0Z" fill="#8A9EBC"/>
<path d="M284.625 0H379.5V94.875H284.625V0Z" fill="#8A9EBC"/>
<path d="M664.125 0H759V94.875H664.125V0Z" fill="#8A9EBC"/>
<rect width="94.875" height="94.875" fill="#D7DEE9"/>
<rect x="379.5" width="94.875" height="94.875" fill="#D7DEE9"/>
<rect x="189.75" width="94.875" height="94.875" fill="#D7DEE9"/>
<rect x="569.25" width="94.875" height="94.875" fill="#D7DEE9"/>
<path d="M94.875 0H189.75V94.875H94.875V0Z" fill="#8A9EBC"/>
<path d="M474.375 0H569.25V94.875H474.375V0Z" fill="#8A9EBC"/>
<path d="M284.625 0H379.5V94.875H284.625V0Z" fill="#8A9EBC"/>
<path d="M664.125 0H759V94.875H664.125V0Z" fill="#8A9EBC"/>
<rect y="379.5" width="94.875" height="94.875" fill="#D7DEE9"/>
<rect x="379.5" y="379.5" width="94.875" height="94.875" fill="#D7DEE9"/>
<rect x="189.75" y="379.5" width="94.875" height="94.875" fill="#D7DEE9"/>
<rect x="569.25" y="379.5" width="94.875" height="94.875" fill="#D7DEE9"/>
<path d="M94.875 379.5H189.75V474.375H94.875V379.5Z" fill="#8A9EBC"/>
<path d="M474.375 379.5H569.25V474.375H474.375V379.5Z" fill="#8A9EBC"/>
<path d="M284.625 379.5H379.5V474.375H284.625V379.5Z" fill="#8A9EBC"/>
<path d="M664.125 379.5H759V474.375H664.125V379.5Z" fill="#8A9EBC"/>
<rect y="189.75" width="94.875" height="94.875" fill="#D7DEE9"/>
<rect x="379.5" y="189.75" width="94.875" height="94.875" fill="#D7DEE9"/>
<rect x="189.75" y="189.75" width="94.875" height="94.875" fill="#D7DEE9"/>
<rect x="569.25" y="189.75" width="94.875" height="94.875" fill="#D7DEE9"/>
<path d="M94.875 189.75H189.75V284.625H94.875V189.75Z" fill="#8A9EBC"/>
<path d="M474.375 189.75H569.25V284.625H474.375V189.75Z" fill="#8A9EBC"/>
<path d="M284.625 189.75H379.5V284.625H284.625V189.75Z" fill="#8A9EBC"/>
<path d="M664.125 189.75H759V284.625H664.125V189.75Z" fill="#8A9EBC"/>
<rect y="189.75" width="94.875" height="94.875" fill="#D7DEE9"/>
<rect x="379.5" y="189.75" width="94.875" height="94.875" fill="#D7DEE9"/>
<rect x="189.75" y="189.75" width="94.875" height="94.875" fill="#D7DEE9"/>
<rect x="569.25" y="189.75" width="94.875" height="94.875" fill="#D7DEE9"/>
<path d="M94.875 189.75H189.75V284.625H94.875V189.75Z" fill="#8A9EBC"/>
<path d="M474.757 189.495H569.632V284.37H474.757V189.495Z" fill="#8A9EBC"/>
<path d="M284.625 189.75H379.5V284.625H284.625V189.75Z" fill="#8A9EBC"/>
<path d="M664.125 189.75H759V284.625H664.125V189.75Z" fill="#8A9EBC"/>
<rect y="569.25" width="94.875" height="94.875" fill="#D7DEE9"/>
<rect x="379.5" y="569.25" width="94.875" height="94.875" fill="#D7DEE9"/>
<rect x="189.75" y="569.25" width="94.875" height="94.875" fill="#D7DEE9"/>
<rect x="569.25" y="569.25" width="94.875" height="94.875" fill="#D7DEE9"/>
<path d="M94.875 569.25H189.75V664.125H94.875V569.25Z" fill="#8A9EBC"/>
<path d="M474.375 569.25H569.25V664.125H474.375V569.25Z" fill="#8A9EBC"/>
<path d="M284.625 569.25H379.5V664.125H284.625V569.25Z" fill="#8A9EBC"/>
<path d="M664.125 569.25H759V664.125H664.125V569.25Z" fill="#8A9EBC"/>
</svg>
