<svg width="47" height="52" viewBox="0 0 47 52" fill="none" xmlns="http://www.w3.org/2000/svg">
<path d="M30.4244 25.4701L30.425 25.4707C30.5208 25.5639 30.5752 25.6926 30.5752 25.8281C30.5752 25.9636 30.5208 26.0924 30.425 26.1856L30.4244 26.1862L4.98884 51.0142C4.89153 51.1091 4.76654 51.1563 4.64031 51.1563C4.51169 51.1563 4.38477 51.1074 4.28797 51.0103L4.28752 51.0099L1.4216 48.1417L1.42115 48.1413C1.32694 48.0472 1.27418 47.9188 1.27516 47.7849L0.775173 47.7813L1.27516 47.7849C1.27614 47.6502 1.33067 47.5227 1.42631 47.4297L1.42637 47.4296L23.2574 26.1865L23.6257 25.8281L23.2574 25.4698L1.42587 4.22663L1.42582 4.22658C1.33018 4.13354 1.27565 4.00604 1.27467 3.87138V3.87137C1.2737 3.73748 1.32645 3.60906 1.42066 3.51502L1.42112 3.51456L4.28704 0.646401L4.28726 0.646177C4.47987 0.453172 4.79179 0.450794 4.98827 0.642C4.98836 0.642089 4.98845 0.642177 4.98854 0.642266L30.4244 25.4701Z" fill="#222831" stroke="#222831"/>
<path d="M45.4126 25.4701L45.4131 25.4707C45.5089 25.5639 45.5633 25.6926 45.5633 25.8281C45.5633 25.9636 45.5089 26.0924 45.4131 26.1856L45.4126 26.1862L19.977 51.0142C19.8797 51.1091 19.7547 51.1563 19.6285 51.1563C19.4998 51.1563 19.3729 51.1074 19.2761 51.0103L19.2757 51.0099L16.4098 48.1417L16.4093 48.1413C16.3151 48.0472 16.2623 47.9188 16.2633 47.7849L15.7633 47.7813L16.2633 47.7849C16.2643 47.6502 16.3188 47.5227 16.4145 47.4297L16.4145 47.4296L38.2456 26.1865L38.6138 25.8281L38.2456 25.4698L16.414 4.22663L16.414 4.22658C16.3183 4.13354 16.2638 4.00604 16.2628 3.87138V3.87137C16.2619 3.73748 16.3146 3.60906 16.4088 3.51502L16.4093 3.51456L19.2752 0.646401L19.2754 0.646177C19.468 0.453172 19.7799 0.450794 19.9764 0.642C19.9765 0.642089 19.9766 0.642177 19.9767 0.642266L45.4126 25.4701Z" fill="#222831" stroke="#222831"/>
</svg>
