<svg width="31" height="52" viewBox="0 0 31 52" fill="none" xmlns="http://www.w3.org/2000/svg">
<path d="M30.3492 25.4701L30.3498 25.4707C30.4456 25.5639 30.5 25.6926 30.5 25.8281C30.5 25.9636 30.4456 26.0924 30.3498 26.1856L30.3492 26.1862L4.91364 51.0142C4.81633 51.1091 4.69135 51.1563 4.56511 51.1563C4.43649 51.1563 4.30957 51.1074 4.21277 51.0103L4.21233 51.0099L1.34641 48.1417L1.34595 48.1413C1.25174 48.0472 1.19899 47.9188 1.19996 47.7849L0.699977 47.7813L1.19996 47.7849C1.20094 47.6502 1.25547 47.5227 1.35112 47.4297L1.35117 47.4296L23.1822 26.1865L23.5505 25.8281L23.1822 25.4698L1.35068 4.22663L1.35063 4.22658C1.25499 4.13354 1.20046 4.00604 1.19948 3.87138V3.87137C1.1985 3.73748 1.25125 3.60906 1.34546 3.51502L1.34592 3.51456L4.21184 0.646401L4.21206 0.646177C4.40467 0.453172 4.71659 0.450794 4.91307 0.642C4.91316 0.642089 4.91325 0.642177 4.91334 0.642266L30.3492 25.4701Z" fill="#222831" stroke="#222831"/>
</svg>
