<svg width="36" height="68" viewBox="0 0 36 68" fill="none" xmlns="http://www.w3.org/2000/svg">
<path d="M34.5 61.5452H33.687C34.211 60.6412 34.5 59.6062 34.5 58.5452C34.5 55.2562 33.149 53.7972 32.017 53.1512C31.039 52.5942 30.501 51.6692 30.5 50.5452H32.5C33.01 50.5452 33.438 50.1612 33.494 49.6542C33.982 45.2612 34.24 42.4122 34.546 38.6932C34.563 38.4902 34.517 38.2882 34.415 38.1112C32.686 35.1172 30.544 32.0762 28.473 29.1362C26.69 26.6042 24.854 23.9972 23.297 21.4392L26.383 20.6122L29.904 22.4452C30.047 22.5192 30.205 22.5582 30.366 22.5582H33.5C34.053 22.5582 34.5 22.1112 34.5 21.5582V18.6542C34.5 18.6542 34.5 18.6542 34.5 18.6532V12.5442C34.5 12.2792 34.395 12.0242 34.207 11.8372L30.957 8.58722C30.706 8.33522 30.34 8.23421 29.991 8.32821L25.508 9.52921L20.293 8.13222L18.822 6.94022C17.375 5.76622 15.608 5.07322 13.673 4.88522C13.77 3.98722 14.043 3.10822 14.386 2.02522L14.471 1.75622C14.594 1.36422 14.465 0.936216 14.146 0.677216C13.825 0.419216 13.378 0.383216 13.023 0.586216C9.01 2.86822 5.859 5.14322 3.518 8.82322C3.498 8.85422 3.497 8.88922 3.48 8.92122C2.734 9.78622 2.16 10.7592 1.828 11.8152C1.63 11.9982 1.501 12.2542 1.501 12.5452C1.501 12.6802 1.529 12.8082 1.578 12.9252C1.532 13.2442 1.501 13.5662 1.501 13.8962V32.5512C1.501 33.0672 1.796 33.4552 2.243 34.0432C3.612 35.8462 6.818 40.0662 1.635 49.0452C1.456 49.3542 1.456 49.7342 1.635 50.0452C1.814 50.3542 2.144 50.5452 2.501 50.5452H5.501V50.6182C5.501 51.7372 4.967 52.6602 3.997 53.2202C2.858 53.8772 1.501 55.3342 1.501 58.5452C1.501 59.6062 1.789 60.6412 2.314 61.5452H1.5C0.947 61.5452 0.5 61.9922 0.5 62.5452V66.5452C0.5 67.0972 0.947 67.5452 1.5 67.5452H34.5C35.053 67.5452 35.5 67.0972 35.5 66.5452V62.5452C35.5 61.9922 35.053 61.5452 34.5 61.5452ZM5.471 45.5452H7.177C7.73 45.5452 8.177 45.0982 8.177 44.5452C8.177 43.9922 7.73 43.5452 7.177 43.5452H6.06C6.225 42.8422 6.336 42.1762 6.4 41.5452H7.177C7.73 41.5452 8.177 41.0982 8.177 40.5452C8.177 39.9922 7.73 39.5452 7.177 39.5452H6.453C6.415 38.8202 6.319 38.1542 6.177 37.5452H7.177C7.73 37.5452 8.177 37.0982 8.177 36.5452C8.177 35.9922 7.73 35.5452 7.177 35.5452H5.509C5.142 34.7312 4.728 34.0702 4.358 33.5452H7.177C7.73 33.5452 8.177 33.0982 8.177 32.5452C8.177 31.9922 7.73 31.5452 7.177 31.5452H3.5V29.5452H7.177C7.73 29.5452 8.177 29.0982 8.177 28.5452C8.177 27.9932 7.73 27.5452 7.177 27.5452H3.5V25.5452H7.177C7.73 25.5452 8.177 25.0982 8.177 24.5452C8.177 23.9932 7.73 23.5452 7.177 23.5452H3.5V21.5442H7.177C7.73 21.5442 8.177 21.0962 8.177 20.5442C8.177 19.9922 7.73 19.5442 7.177 19.5442H3.5V17.5442H7.177C7.73 17.5442 8.177 17.0962 8.177 16.5442C8.177 15.9922 7.73 15.5442 7.177 15.5442H3.5V13.8962C3.5 13.7792 3.511 13.6622 3.521 13.5452H7.177C7.73 13.5452 8.177 13.0972 8.177 12.5452C8.177 11.9932 7.73 11.5452 7.177 11.5452H4.113C4.391 11.0092 4.752 10.4952 5.188 10.0172L5.125 9.99422C5.152 9.96122 5.183 9.93322 5.206 9.89622C6.901 7.23122 9.116 5.35222 11.855 3.61322C11.52 5.14122 11.491 6.70122 12.263 8.85422C12.45 9.37422 13.022 9.64322 13.542 9.45822C14.062 9.27122 14.332 8.69922 14.146 8.17922C13.986 7.73322 13.88 7.33121 13.798 6.94621C15.212 7.13621 16.506 7.63722 17.563 8.49422L19.199 9.82022C19.308 9.90822 19.434 9.97322 19.57 10.0092L25.25 11.5312C25.42 11.5772 25.598 11.5772 25.768 11.5312L29.953 10.4102L32.502 12.9592V17.1332L30.506 16.2782C30.001 16.0602 29.411 16.2952 29.193 16.8022C28.975 17.3092 29.211 17.8982 29.718 18.1152L32.501 19.3072V20.5582H30.611L26.963 18.6582C26.741 18.5442 26.484 18.5152 26.242 18.5802L21.506 19.8502C21.206 19.9302 20.96 20.1452 20.841 20.4322C20.722 20.7192 20.743 21.0462 20.899 21.3152C22.628 24.3092 24.769 27.3482 26.839 30.2892C28.822 33.1042 30.87 36.0122 32.527 38.8442C32.256 42.1402 32.015 44.7862 31.605 48.5462H29.5H6.5H4.181C4.72 47.4842 5.137 46.4892 5.471 45.5452ZM33.5 65.5452H2.5V63.5452H4.509H7.044C7.597 63.5452 8.044 63.0972 8.044 62.5452C8.044 61.9922 7.597 61.5452 7.044 61.5452H4.898C4.018 60.7812 3.501 59.7132 3.501 58.5452C3.501 56.7332 4.004 55.5242 4.996 54.9532C6.588 54.0352 7.501 52.4552 7.501 50.6182V50.5452H28.501C28.501 52.3922 29.422 53.9752 31.027 54.8902C32.005 55.4472 32.501 56.6762 32.501 58.5452C32.501 59.7132 31.983 60.7812 31.104 61.5452H12.324C11.771 61.5452 11.324 61.9922 11.324 62.5452C11.324 63.0972 11.771 63.5452 12.324 63.5452H31.493H33.5V65.5452Z" fill="black"/>
<path d="M18.3301 13.0371C18.8821 13.0371 19.3301 13.4861 19.3281 14.0961C19.3001 14.6481 19.7231 15.1181 20.2741 15.1471C20.2931 15.1491 20.3101 15.1491 20.3281 15.1491C20.8561 15.1491 21.2981 14.7351 21.3261 14.2021L21.3301 14.0381C21.3301 12.3841 19.9841 11.0381 18.3301 11.0381C17.7771 11.0381 17.3301 11.4861 17.3301 12.0381C17.3301 12.5901 17.7771 13.0371 18.3301 13.0371Z" fill="black"/>
</svg>
