<svg width="32" height="44" viewBox="0 0 32 44" fill="none" xmlns="http://www.w3.org/2000/svg">
<path d="M30.6429 39.2857H30.503C30.5957 38.8991 30.6429 38.5031 30.6429 38.1071C30.6429 34.5738 28.2739 33.7794 27.0019 33.3536C26.3403 33.132 25.9294 32.5592 25.9294 31.8615V31.4286C25.9294 30.9941 25.5774 30.6429 25.1436 30.6429H24.9315H24.1819C23.4127 29.4651 22.8061 28.336 22.3339 27.2006C21.4924 25.1735 21.2748 23.1401 21.2221 21.2143H24.3571C24.7909 21.2143 25.1429 20.8623 25.1429 20.4286V19.624C25.1429 19.4166 25.0611 19.2178 24.915 19.0709L21.0351 15.1604C20.8992 15.0236 20.7169 14.9498 20.5268 14.938C22.605 13.4389 23.9651 11.0024 23.9651 8.25C23.9651 3.70071 20.2644 0 15.7159 0C11.1666 0 7.46586 3.70071 7.46586 8.25C7.46586 11.0024 8.82514 13.4389 10.9041 14.938C10.7132 14.9506 10.5301 15.0236 10.395 15.1604L6.51514 19.0709C6.36743 19.2178 6.28571 19.4158 6.28571 19.624V20.4286C6.28571 20.8623 6.63771 21.2143 7.07143 21.2143H10.3101C10.2599 23.3656 9.85129 25.377 9.09307 27.2006C8.62243 28.3344 8.01664 29.4643 7.24586 30.6429H6.35014C5.91643 30.6429 5.56443 30.9941 5.56443 31.4286V31.8426C5.56443 32.5349 5.15743 33.1045 4.50371 33.33C3.02421 33.8391 0.785714 34.6099 0.785714 38.1071C0.785714 38.5031 0.832857 38.8991 0.925571 39.2857H0.785714C0.352 39.2857 0 39.6369 0 40.0714V43.2143C0 43.648 0.352 44 0.785714 44H30.6429C31.0766 44 31.4286 43.648 31.4286 43.2143V40.0714C31.4286 39.6369 31.0766 39.2857 30.6429 39.2857ZM9.0365 8.25C9.0365 4.56657 12.0324 1.57143 15.7151 1.57143C19.3969 1.57143 22.3929 4.56736 22.3929 8.25C22.3929 11.9326 19.3969 14.9286 15.7151 14.9286C12.0316 14.9286 9.0365 11.9326 9.0365 8.25ZM8.16043 19.6429L11.2789 16.5H20.1504L23.2689 19.6429H20.4246H11.099H8.16043ZM5.016 34.8166C6.18593 34.4135 6.98028 33.4149 7.117 32.2143H7.66778H11.044C11.4777 32.2143 11.8297 31.8623 11.8297 31.4286C11.8297 30.9941 11.4777 30.6429 11.044 30.6429H9.09621C9.67136 29.6851 10.1538 28.7469 10.5451 27.8033C11.3819 25.7895 11.8266 23.5746 11.8784 21.2143H19.6523C19.7065 23.3074 19.9399 25.531 20.8835 27.8033C21.2748 28.7477 21.7572 29.6859 22.3324 30.6429H14.0242C13.5905 30.6429 13.2385 30.9941 13.2385 31.4286C13.2385 31.8623 13.5905 32.2143 14.0242 32.2143H23.7616H24.3768C24.5072 33.4337 25.3126 34.4449 26.5037 34.8441C27.9581 35.3312 29.0714 35.8812 29.0714 38.1071C29.0714 38.5079 28.9984 38.907 28.8632 39.2857H2.56536C2.43021 38.907 2.35714 38.5079 2.35714 38.1071C2.35714 35.7311 3.64886 35.2864 5.016 34.8166ZM29.8571 42.4286H1.57143V40.8571H2.04757H29.3802H29.8571V42.4286Z" fill="black"/>
<path d="M20.4426 8.66786C20.0214 8.55629 19.5932 8.81086 19.484 9.23043C19.3873 9.60207 19.2373 9.95565 19.0369 10.2825C18.8106 10.6526 18.9269 11.1366 19.297 11.3629C19.4243 11.4414 19.5665 11.4784 19.7063 11.4784C19.9703 11.4784 20.2281 11.3448 20.3773 11.102C20.6578 10.6439 20.8692 10.1466 21.0051 9.62564C21.1136 9.20607 20.8621 8.77707 20.4426 8.66786Z" fill="black"/>
<path d="M15.7144 4.35512C17.3125 4.35512 18.7307 5.31291 19.3287 6.79476C19.452 7.10119 19.7467 7.28741 20.0586 7.28741C20.156 7.28741 20.255 7.26933 20.3517 7.23005C20.7539 7.06819 20.9488 6.61012 20.7869 6.20705C19.9486 4.12726 17.9576 2.78369 15.7152 2.78369C15.2814 2.78369 14.9294 3.13491 14.9294 3.56941C14.9287 4.00312 15.2807 4.35512 15.7144 4.35512Z" fill="black"/>
</svg>
